<svg xmlns="http://www.w3.org/2000/svg" xmlns:xlink="http://www.w3.org/1999/xlink" viewBox="0,0,256,256" width="32px" height="32px" fill-rule="nonzero"><g fill="#fffefe" fill-rule="nonzero" stroke="none" stroke-width="1" stroke-linecap="butt" stroke-linejoin="miter" stroke-miterlimit="10" stroke-dasharray="" stroke-dashoffset="0" font-family="none" font-weight="none" font-size="none" text-anchor="none" style="mix-blend-mode: normal"><path d="M0,256v-256h256v256z" id="bgRectangle"></path></g><g fill-opacity="0.47059" fill="#000000" fill-rule="nonzero" stroke="none" stroke-width="1" stroke-linecap="butt" stroke-linejoin="miter" stroke-miterlimit="10" stroke-dasharray="" stroke-dashoffset="0" font-family="none" font-weight="none" font-size="none" text-anchor="none" style="mix-blend-mode: normal"><g transform="scale(8,8)"><path d="M16,3c-7.16797,0 -13,5.83203 -13,13c0,7.16797 5.83203,13 13,13c7.16797,0 13,-5.83203 13,-13c0,-7.16797 -5.83203,-13 -13,-13zM14.875,5.0625c0.04297,-0.00391 0.08203,0.00391 0.125,0v11.34375l0.28125,0.3125l7.78125,7.75c-1.90625,1.59375 -4.375,2.53125 -7.0625,2.53125c-6.08594,0 -11,-4.91406 -11,-11c0,-5.70703 4.32031,-10.375 9.875,-10.9375zM17,5.0625c5.28516,0.47656 9.46094,4.65234 9.9375,9.9375h-9.9375zM18.4375,17h8.5c-0.20703,2.29297 -1.07422,4.39453 -2.46875,6.0625z"></path></g></g></svg>